<?xml version="1.0" encoding="UTF-8" standalone="no"?>
<!-- Created with Inkscape (http://www.inkscape.org/) -->

<svg
   width="399.99988"
   height="399.99997"
   viewBox="0 0 105.8333 105.83332"
   version="1.1"
   id="svg1"
   xmlns="http://www.w3.org/2000/svg"
   xmlns:svg="http://www.w3.org/2000/svg">
  <defs
     id="defs1" />
  <g
     id="layer1"
     transform="translate(-660.00003,318.72894)">
    <g
       id="g70">
      <circle
         style="fill:#000000;fill-opacity:1;stroke-width:0.303046"
         id="path44-8-0"
         cx="712.91669"
         cy="-265.81229"
         r="52.916664" />
      <g
         id="g47"
         transform="matrix(0.32537707,0,0,0.32537707,459.88475,-219.64244)">
        <path
           id="rect3-9-6-8-3"
           style="fill:#ffffff;fill-opacity:1;stroke-width:0.75551"
           d="m 851.69811,-270.10277 a 2.1245154,2.1245154 0 0 0 -1.32188,0.35191 l -145.43712,96.95843 a 6.5584311,6.5584311 0 0 0 -0.99942,10.09447 l 41.60263,41.60263 a 11.099407,11.099407 0 0 1 2.07946,12.81265 l -45.76154,91.522061 a 2.1245154,2.1245154 0 0 0 3.07888,2.71818 l 145.43712,-96.958421 a 6.5584311,6.5584311 0 0 0 0.99942,-10.09447 l -41.60264,-41.60263 a 11.099407,11.099407 0 0 1 -2.07946,-12.81265 l 45.76155,-91.52207 a 2.1245154,2.1245154 0 0 0 -1.757,-3.07009 z m -33.62379,39.20019 c 1.12771,0.10555 1.20298,1.50716 -0.032,3.97702 -6.27608,12.55137 -12.5517,25.10318 -18.82779,37.65455 -1.97602,3.95177 -7.15983,7.15511 -11.5781,7.15511 h -35.973 c -4.41828,0 -5.01995,-1.98685 -1.34358,-4.43745 21.54786,-14.36344 43.09626,-28.72644 64.64412,-43.08988 1.37864,-0.91897 2.43378,-1.32268 3.1104,-1.25935 z m -86.27018,73.12938 38.70721,0.004 c 4.41827,4.6e-4 5.46727,2.53343 2.34299,5.65753 -5.33799,5.33769 -10.67602,10.6753 -16.014,16.01298 -3.12428,3.12389 -8.19057,3.12493 -11.31611,0.002 -0.90302,-0.90225 -1.80637,-1.80455 -2.70939,-2.70681 -3.12551,-3.12286 -8.19503,-8.18364 -11.32334,-11.30371 -0.67426,-0.67248 -1.34887,-1.34496 -2.02314,-2.01744 -3.12792,-3.11994 -2.08235,-5.64922 2.33578,-5.64876 z m 72.30876,7.75044 c 2.04734,-1.1e-4 4.09488,0.78044 5.65702,2.34249 5.33336,5.33306 10.6667,10.66648 16.00006,15.99954 3.12428,3.1241 2.07526,5.6565 -2.34301,5.6565 H 784.804 c -4.41827,0 -5.46751,-2.53262 -2.34352,-5.65702 5.33197,-5.33267 10.66395,-10.66582 15.99592,-15.9985 1.56199,-1.5622 3.60916,-2.34291 5.6565,-2.34301 z m -36.43395,48.3464 h 35.973 c 4.41827,0 5.01981,1.986641 1.34358,4.437451 -21.5487,14.36578 -43.09748,28.73184 -64.64618,43.09763 -3.67621,2.45082 -5.05479,1.23365 -3.07888,-2.71818 6.2769,-12.5539 12.55399,-25.10737 18.83089,-37.66127 1.9759,-3.95182 7.15931,-7.155631 11.57759,-7.155631 z" />
        <path
           id="path5-0-8"
           style="fill:#800000;stroke-width:0.75551"
           d="m 704.53228,135.38496 c 0.90297,0.90221 1.80593,1.80443 2.7089,2.70664 3.1255,3.12289 8.19197,3.12192 11.31628,-0.002 5.338,-5.33762 10.67601,-10.67524 16.01401,-16.01287 3.12431,-3.12408 2.07534,-5.65704 -2.34294,-5.65753 l -38.70704,-0.004 c -4.41828,-4.9e-4 -5.464,2.52844 -2.33569,5.64851 0.67432,0.67254 1.34864,1.34508 2.02295,2.01763 3.12831,3.12007 5.66431,5.64945 5.66431,5.64953 z"
           transform="translate(38.282664,-274.18832)" />
        <path
           id="path6-6-8"
           style="fill:#ff6600;stroke-width:0.872387"
           d="m 713.38087,92.072273 35.97266,0 c 4.41828,0 9.60189,-3.203542 11.57792,-7.155311 6.27617,-12.551411 12.55235,-25.102819 18.82853,-37.654227 1.97603,-3.951769 0.59763,-5.168701 -3.07874,-2.718094 -21.54791,14.36347 -43.09581,28.726941 -64.64371,43.090415 -3.67637,2.450607 -3.07494,4.437217 1.34334,4.437217 z"
           transform="translate(38.282664,-274.18832)" />
        <path
           id="path7-8-3"
           style="fill:#ff6600;stroke-width:0.872387"
           d="m 702.06657,220.04678 c 21.54872,-14.36582 43.09745,-28.73164 64.64618,-43.09746 3.67623,-2.45082 3.07468,-4.4376 -1.3436,-4.4376 h -35.97266 c -4.41828,0 -9.60179,3.20359 -11.57771,7.15542 -6.27697,12.55394 -12.55393,25.10788 -18.8309,37.66182 -1.97592,3.95183 -0.59754,5.16864 3.07869,2.71782 z"
           transform="translate(38.282664,-274.18832)" />
        <path
           id="path4-2-1"
           style="fill:#800000;stroke-width:0.75551"
           d="m 746.52149,148.16406 h 38.62305 c 4.41828,0 5.46725,-2.53257 2.34294,-5.65665 -5.33344,-5.33306 -10.66689,-10.66613 -16.00033,-15.9992 -3.12431,-3.12408 -8.18954,-3.12381 -11.31351,6.1e-4 -5.3319,5.33266 -10.6638,10.66532 -15.9957,15.99798 -3.12397,3.12442 -2.07473,5.65726 2.34355,5.65726 z"
           transform="translate(38.282664,-274.18832)" />
      </g>
    </g>
  </g>
</svg>
