<?xml version="1.0" encoding="UTF-8" standalone="no"?>
<!-- Created with Inkscape (http://www.inkscape.org/) -->

<svg
   width="399.99994"
   height="399.99997"
   viewBox="0 0 105.83331 105.83332"
   version="1.1"
   id="svg1"
   xmlns="http://www.w3.org/2000/svg"
   xmlns:svg="http://www.w3.org/2000/svg">
  <defs
     id="defs1" />
  <g
     id="layer1"
     transform="translate(-440,631.85919)">
    <path
       id="path14-0"
       style="fill:#ffffff;stroke-width:0.315101"
       d="m 492.91668,-631.85918 a 52.916664,52.916664 0 0 0 -52.91667,52.91667 52.916664,52.916664 0 0 0 52.91667,52.91666 52.916664,52.916664 0 0 0 52.91666,-52.91666 52.916664,52.916664 0 0 0 -52.91666,-52.91667 z m 25.24807,9.19789 a 0.72446736,0.72446736 0 0 1 0.59893,1.04696 l -15.60474,31.20947 a 3.7849376,3.7849376 0 0 0 0.70901,4.36872 l 14.18673,14.18673 a 2.2364485,2.2364485 0 0 1 -0.34107,3.44217 l -49.59439,33.06361 a 0.72446736,0.72446736 0 0 1 -1.05006,-0.92707 l 15.60525,-31.20946 a 3.7849376,3.7849376 0 0 0 -0.70952,-4.36925 l -14.18621,-14.18673 a 2.2364485,2.2364485 0 0 1 0.34054,-3.44216 l 49.59439,-33.0631 a 0.72446736,0.72446736 0 0 1 0.45114,-0.11989 z m -11.46649,13.36714 c -0.23073,-0.0216 -0.59028,0.11605 -1.0604,0.42943 -7.34789,4.89798 -14.69623,9.79622 -22.04413,14.6942 -1.25365,0.83565 -1.04828,1.51308 0.45837,1.51308 h 12.26695 c 1.50665,0 3.27425,-1.09258 3.94808,-2.44016 2.14017,-4.28006 4.28011,-8.55999 6.42028,-12.84004 0.42151,-0.84223 0.39592,-1.32051 0.0114,-1.35651 z m -29.41784,24.93698 c -1.50659,-1.6e-4 -1.86348,0.86259 -0.79685,1.9265 0.22993,0.22931 0.46048,0.45849 0.6904,0.68781 1.06676,1.06396 2.79546,2.78965 3.86126,3.85455 0.30795,0.30767 0.61553,0.61527 0.92346,0.92294 1.06582,1.06493 2.79381,1.06475 3.85919,-5.2e-4 1.82027,-1.82017 3.64037,-3.64047 5.46065,-5.46065 1.06539,-1.06533 0.70773,-1.92893 -0.79891,-1.92908 l -13.1992,-10e-4 z m 24.65741,2.64377 c -0.69815,4e-5 -1.39644,0.2662 -1.92908,0.79891 -1.81823,1.81846 -3.63623,3.63703 -5.45445,5.45548 -1.0653,1.06543 -0.70773,1.92909 0.79892,1.92909 h 13.17077 c 1.50665,0 1.86431,-0.86376 0.79892,-1.92909 -1.8187,-1.81859 -3.63731,-3.63741 -5.456,-5.45599 -0.5327,-0.53267 -1.23092,-0.79844 -1.92908,-0.7984 z m -12.42405,16.48581 c -1.50664,10e-6 -3.27429,1.09258 -3.94808,2.44016 -2.14044,4.28092 -4.28087,8.56171 -6.42131,12.84263 -0.6738,1.3476 -0.20353,1.76281 1.05007,0.92707 7.34819,-4.89877 14.69646,-9.79749 22.04464,-14.69626 1.25361,-0.83574 1.04828,-1.5136 -0.45837,-1.5136 z" />
  </g>
</svg>
